<svg width="83" height="83" viewBox="0 0 83 83" fill="none" xmlns="http://www.w3.org/2000/svg">
<circle cx="41.5" cy="41.5" r="41.5" fill="#EC0F08"/>
<path d="M65.8603 44.5213C62.2568 43.9225 58.5473 44.3688 55.1897 45.8074L53.6237 46.4781C53.6237 46.4781 51.5472 45.2602 51.2994 45.1442C50.0076 44.5377 43.6479 43.0877 42.9645 42.876C41.6103 42.4549 40.5084 41.424 39.9813 40.1285C44.1598 38.3111 46.3744 33.6137 46.7275 28.8906V28.1832H48.5034C49.0387 28.1832 49.4717 27.7495 49.4717 27.2149C49.4717 26.6803 49.0386 26.2466 48.5034 26.2466H47.2929L47.159 24.8882C46.8442 21.6969 44.6281 19.0141 41.5536 18.1028L39.7885 17.5795V16.9189C39.7885 16.3841 39.3549 15.9506 38.8202 15.9506H33.3083C32.7747 15.9506 32.3417 16.3827 32.3407 16.9164L32.3394 17.5733L30.5338 18.1091C27.4716 19.018 25.2598 21.6841 24.9322 24.8616L24.7895 26.2466H23.6036C23.069 26.2466 22.6353 26.6804 22.6353 27.2149C22.6353 27.7496 23.0691 28.1832 23.6036 28.1832H25.4255L25.4268 28.9636C25.776 33.6011 27.9655 38.2586 32.0961 40.0963C31.5748 41.4195 30.5239 42.4509 29.1394 42.8783C27.963 43.2414 23.3962 44.2413 23.3962 44.2413C23.3956 44.2413 23.3949 44.2413 23.3949 44.2413C22.7638 44.3813 17.2117 45.7341 16.5713 50.2202C16.1849 52.9184 15.734 55.4791 15.7335 55.4842C15.6836 55.7653 15.7618 56.0553 15.9453 56.2747C16.1294 56.4941 16.4011 56.6202 16.6873 56.6202H39.9662L40.0081 64.9579C40.0095 65.234 40.1284 65.4964 40.3352 65.6795C40.5535 65.8727 40.8425 65.9582 41.1303 65.9111C42.6235 65.6667 47.5394 65.3392 52.2582 66.6703C52.5747 66.7596 53.3409 66.9154 53.7877 67.0037C54.0119 67.048 54.239 67.0599 54.4667 67.0394C54.4667 67.0394 59.1613 64.9387 66.1691 65.9944C66.7756 66.0859 67.2812 65.4951 67.2812 64.8824V46.2008C67.2813 45.3661 66.6842 44.66 65.8603 44.5213ZM41.0033 19.9588C43.3327 20.6497 44.992 22.6583 45.2315 25.0766L45.3475 26.2466H39.7885V19.5988L41.0033 19.9588ZM37.8519 17.8873V26.2466H34.2572L34.2755 17.8873H37.8519ZM26.8592 25.0577C27.1063 22.652 28.7649 20.6536 31.0849 19.9651L32.3351 19.5944L32.3206 26.2466H26.7369L26.8592 25.0577ZM27.361 28.8906V28.1832H44.7923L44.7936 28.8174C44.4128 33.881 41.5696 38.9887 36.0761 38.9887C30.5825 38.9887 27.7393 33.8811 27.361 28.8906ZM36.076 40.9254C36.8034 40.9254 37.4855 40.8428 38.1368 40.7098C38.4898 41.6466 39.0403 42.4738 39.7419 43.1502L36.1018 46.1062L32.4032 43.1186C33.0891 42.446 33.6256 41.6277 33.9698 40.7022C34.6341 40.841 35.3314 40.9254 36.076 40.9254ZM26.7835 45.472L29.2989 54.6838H23.1889V46.3042C23.5343 46.1977 25.981 45.6567 26.7835 45.472ZM18.4878 50.4952C18.7204 48.8687 20.0033 47.7888 21.2522 47.1098V54.6837H17.8346C18.0036 53.6687 18.2583 52.1003 18.4878 50.4952ZM31.3062 54.6838L28.6673 45.0182C29.0587 44.9173 30.43 44.4602 30.7678 44.2888L35.4953 48.106C35.6725 48.2485 35.8881 48.3203 36.1037 48.3203C36.3199 48.3203 36.5362 48.2485 36.7139 48.1034C36.7139 48.1034 40.0216 45.6394 39.9662 45.6394V54.6838H31.3062ZM45.3268 63.6912C44.1858 63.6912 43.0352 63.7694 41.903 63.922V46.4012C45.0853 45.9057 48.3396 46.3218 51.2956 47.5877L53.161 48.3877V64.9217C53.161 64.9217 47.8718 63.6912 45.3268 63.6912ZM65.3446 63.9257C61.9176 63.4548 58.4225 63.6899 55.0977 64.6028V47.9545L55.9525 47.5876C58.9092 46.3204 62.1672 45.9106 65.3446 46.3998V63.9257Z" fill="white"/>
<path d="M48.9649 54.6838H45.0916C44.557 54.6838 44.1233 55.1175 44.1233 55.6521C44.1233 56.1867 44.5571 56.6204 45.0916 56.6204H48.9649C49.4995 56.6204 49.9332 56.1866 49.9332 55.6521C49.9332 55.1174 49.4994 54.6838 48.9649 54.6838Z" fill="white"/>
<path d="M48.9649 58.5571H45.0916C44.557 58.5571 44.1233 58.9908 44.1233 59.5254C44.1233 60.0599 44.5571 60.4937 45.0916 60.4937H48.9649C49.4995 60.4937 49.9332 60.0599 49.9332 59.5254C49.9332 58.9908 49.4994 58.5571 48.9649 58.5571Z" fill="white"/>
<path d="M61.876 54.6838H58.0027C57.4681 54.6838 57.0344 55.1175 57.0344 55.6521C57.0344 56.1867 57.4682 56.6204 58.0027 56.6204H61.876C62.4107 56.6204 62.8443 56.1866 62.8443 55.6521C62.8443 55.1174 62.4107 54.6838 61.876 54.6838Z" fill="white"/>
<path d="M48.9649 50.8105H45.0916C44.557 50.8105 44.1233 51.2442 44.1233 51.7788C44.1233 52.3133 44.5571 52.7471 45.0916 52.7471H48.9649C49.4995 52.7471 49.9332 52.3133 49.9332 51.7788C49.9332 51.2442 49.4994 50.8105 48.9649 50.8105Z" fill="white"/>
<path d="M61.876 50.8105H58.0027C57.4681 50.8105 57.0344 51.2442 57.0344 51.7788C57.0344 52.3133 57.4682 52.7471 58.0027 52.7471H61.876C62.4107 52.7471 62.8443 52.3133 62.8443 51.7788C62.8443 51.2442 62.4107 50.8105 61.876 50.8105Z" fill="white"/>
<path d="M59.2938 58.5571H58.0027C57.4681 58.5571 57.0344 58.9908 57.0344 59.5254C57.0344 60.0599 57.4682 60.4937 58.0027 60.4937H59.2938C59.8285 60.4937 60.2621 60.0599 60.2621 59.5254C60.2621 58.9908 59.8285 58.5571 59.2938 58.5571Z" fill="white"/>
</svg>
