<svg width="83" height="83" viewBox="0 0 83 83" fill="none" xmlns="http://www.w3.org/2000/svg">
<circle cx="41.5" cy="41.5" r="41.5" fill="#FC0002"/>
<path d="M25.2686 23.4242H54.9827V36.4242H58.6974V19.7101H21.5544V64.2813H34.5544V60.5672H25.2686V23.4242Z" fill="white"/>
<path d="M28.9832 27.1384H51.269V30.8525H28.9832V27.1384ZM28.9832 34.5672H47.5544V38.2813H28.9832V34.5672ZM28.9832 41.9954H40.1261V45.7096H28.9832V41.9954ZM55.3666 39.27L38.2949 56.3416L38.2685 64.1945L46.1741 64.2209L63.2458 47.1492L55.3666 39.27ZM57.993 47.1492L56.7016 48.4406L54.0747 45.8142L55.3666 44.5223L57.993 47.1492ZM54.0757 51.067L47.5137 57.629L44.8873 55.0025L51.4493 48.4406L54.0757 51.067ZM41.9953 60.4925L42.004 57.8854L42.2609 57.6284L44.8873 60.2549L44.641 60.5011L41.9953 60.4925Z" fill="white"/>
</svg>
