<svg width="83" height="83" viewBox="0 0 83 83" fill="none" xmlns="http://www.w3.org/2000/svg">
<circle cx="41.5" cy="41.5" r="41.5" fill="#EC0F08"/>
<g clip-path="url(#clip0_140_131)">
<path d="M24.1516 27.3041C27.6808 27.3041 28.3873 24.5617 28.3873 23.0661V21.6194C28.3873 20.1236 27.6807 17.3821 24.1516 17.3821C20.6233 17.3821 19.9167 20.1236 19.9167 21.6194V23.066C19.9167 24.5617 20.6233 27.3041 24.1516 27.3041Z" fill="white"/>
<path d="M40.7031 34.3281L34.7849 37.2284L31.5391 31.9375C30.5874 30.3858 29.357 29.1749 27.6107 29.1749H24.9485H21.1587C18.3097 29.1749 16 31.6223 16 34.641V50.3591H19.4879V67H22.8629L24.9485 51.8391L27.0349 67H30.4099V42.9568V38.9973L33.2659 42.2969L42.2969 36.7187L40.7031 34.3281Z" fill="white"/>
<path d="M67 20.7812V18.3906H65.4062H51.8594V16H48.6719V18.3906H35.125H33.5312V20.7812H35.125V34.7343L35.3858 35.1593L36.7188 34.5063V20.7812H63.8125V44.6875H36.7188V42.0377L35.125 43.0221V44.6875H33.5312V47.0781H35.125H49.4937V53.3613L44.0307 63.7914C43.2361 63.8716 42.6144 64.5347 42.6144 65.3502C42.6144 66.2202 43.3195 66.9253 44.1895 66.9253C45.0594 66.9253 45.7646 66.2203 45.7646 65.3502C45.7646 65.0163 45.6595 64.7081 45.4821 64.4537L49.4938 56.7954V64.6094H51.0875V56.9862L55.0213 64.4957C54.8617 64.7425 54.7669 65.035 54.7669 65.3502C54.7669 66.2202 55.4719 66.9253 56.3419 66.9253C57.2119 66.9253 57.917 66.2203 57.917 65.3502C57.917 64.5167 57.268 63.8412 56.4486 63.786L51.0876 53.5519V47.0781H65.4062H67V44.6875H65.4062V20.7812H67Z" fill="white"/>
</g>
<defs>
<clipPath id="clip0_140_131">
<rect width="51" height="51" fill="white" transform="translate(16 16)"/>
</clipPath>
</defs>
</svg>
